<svg width="auto" height="100%" viewBox="0 0 20 20" fill="none" xmlns="http://www.w3.org/2000/svg">
<g clip-path="url(#clip0_25_412)">
<path fill-rule="evenodd" clip-rule="evenodd" d="M10 1.81818C5.48131 1.81818 1.81818 5.48131 1.81818 10C1.81818 14.5187 5.48131 18.1818 10 18.1818C14.5187 18.1818 18.1818 14.5187 18.1818 10C18.1818 5.48131 14.5187 1.81818 10 1.81818ZM0 10C0 4.47715 4.47715 0 10 0C15.5228 0 20 4.47715 20 10C20 15.5228 15.5228 20 10 20C4.47715 20 0 15.5228 0 10ZM10.9091 8.18182V15.4545H9.09091V8.18182H10.9091ZM10 6.81818C10.7531 6.81818 11.3636 6.20766 11.3636 5.45455C11.3636 4.70143 10.7531 4.09091 10 4.09091C9.24691 4.09091 8.63636 4.70143 8.63636 5.45455C8.63636 6.20766 9.24691 6.81818 10 6.81818Z" fill="white"/>
</g>
<defs>
<clipPath id="clip0_25_412">
<rect width="20" height="20" fill="white"/>
</clipPath>
</defs>
</svg>
