<svg width="82" height="61" viewBox="0 0 82 61" fill="none" xmlns="http://www.w3.org/2000/svg">
<path d="M3.35352 0.453125H8.82227L19.1006 27.8701L29.3545 0.453125H34.8232L21.249 36H16.9033L3.35352 0.453125ZM0.863281 0.453125H6.06348L6.9668 24.1836V36H0.863281V0.453125ZM32.1133 0.453125H37.3379V36H31.21V24.1836L32.1133 0.453125ZM47.1035 0.453125H52.5723L62.8506 27.8701L73.1045 0.453125H78.5732L64.999 36H60.6533L47.1035 0.453125ZM44.6133 0.453125H49.8135L50.7168 24.1836V36H44.6133V0.453125ZM75.8633 0.453125H81.0879V36H74.96V24.1836L75.8633 0.453125ZM2.01172 44.2031H3.65527L7.84766 54.6357L12.0312 44.2031H13.6836L8.48047 57H7.19727L2.01172 44.2031ZM1.47559 44.2031H2.92578L3.16309 52.0078V57H1.47559V44.2031ZM12.7607 44.2031H14.2109V57H12.5234V52.0078L12.7607 44.2031ZM19.6162 56.0156L22.2617 47.4902H24.002L20.1875 58.4678C20.0996 58.7021 19.9824 58.9541 19.8359 59.2236C19.6953 59.499 19.5137 59.7598 19.291 60.0059C19.0684 60.252 18.7988 60.4512 18.4824 60.6035C18.1719 60.7617 17.7998 60.8408 17.3662 60.8408C17.2373 60.8408 17.0732 60.8232 16.874 60.7881C16.6748 60.7529 16.5342 60.7236 16.4521 60.7002L16.4434 59.3818C16.4902 59.3877 16.5635 59.3936 16.6631 59.3994C16.7686 59.4111 16.8418 59.417 16.8828 59.417C17.252 59.417 17.5654 59.3672 17.8232 59.2676C18.0811 59.1738 18.2979 59.0127 18.4736 58.7842C18.6553 58.5615 18.8105 58.2539 18.9395 57.8613L19.6162 56.0156ZM17.6738 47.4902L20.1436 54.873L20.5654 56.5869L19.3965 57.1846L15.8984 47.4902H17.6738ZM26.252 44.2031H27.8955L32.0879 54.6357L36.2715 44.2031H37.9238L32.7207 57H31.4375L26.252 44.2031ZM25.7158 44.2031H27.166L27.4033 52.0078V57H25.7158V44.2031ZM37.001 44.2031H38.4512V57H36.7637V52.0078L37.001 44.2031ZM40.7539 52.3506V52.1484C40.7539 51.4629 40.8535 50.8271 41.0527 50.2412C41.252 49.6494 41.5391 49.1367 41.9141 48.7031C42.2891 48.2637 42.7432 47.9238 43.2764 47.6836C43.8096 47.4375 44.4072 47.3145 45.0693 47.3145C45.7373 47.3145 46.3379 47.4375 46.8711 47.6836C47.4102 47.9238 47.8672 48.2637 48.2422 48.7031C48.623 49.1367 48.9131 49.6494 49.1123 50.2412C49.3115 50.8271 49.4111 51.4629 49.4111 52.1484V52.3506C49.4111 53.0361 49.3115 53.6719 49.1123 54.2578C48.9131 54.8438 48.623 55.3564 48.2422 55.7959C47.8672 56.2295 47.4131 56.5693 46.8799 56.8154C46.3525 57.0557 45.7549 57.1758 45.0869 57.1758C44.4189 57.1758 43.8184 57.0557 43.2852 56.8154C42.752 56.5693 42.2949 56.2295 41.9141 55.7959C41.5391 55.3564 41.252 54.8438 41.0527 54.2578C40.8535 53.6719 40.7539 53.0361 40.7539 52.3506ZM42.3799 52.1484V52.3506C42.3799 52.8252 42.4355 53.2734 42.5469 53.6953C42.6582 54.1113 42.8252 54.4805 43.0479 54.8027C43.2764 55.125 43.5605 55.3799 43.9004 55.5674C44.2402 55.749 44.6357 55.8398 45.0869 55.8398C45.5322 55.8398 45.9219 55.749 46.2559 55.5674C46.5957 55.3799 46.877 55.125 47.0996 54.8027C47.3223 54.4805 47.4893 54.1113 47.6006 53.6953C47.7178 53.2734 47.7764 52.8252 47.7764 52.3506V52.1484C47.7764 51.6797 47.7178 51.2373 47.6006 50.8213C47.4893 50.3994 47.3193 50.0273 47.0908 49.7051C46.8682 49.377 46.5869 49.1191 46.2471 48.9316C45.9131 48.7441 45.5205 48.6504 45.0693 48.6504C44.624 48.6504 44.2314 48.7441 43.8916 48.9316C43.5576 49.1191 43.2764 49.377 43.0479 49.7051C42.8252 50.0273 42.6582 50.3994 42.5469 50.8213C42.4355 51.2373 42.3799 51.6797 42.3799 52.1484ZM54.2012 55.5322L56.8027 47.4902H58.4639L55.0449 57H53.9551L54.2012 55.5322ZM52.0303 47.4902L54.7109 55.5762L54.8955 57H53.8057L50.3604 47.4902H52.0303ZM61.7949 47.4902V57H60.1602V47.4902H61.7949ZM60.0371 44.9678C60.0371 44.7041 60.1162 44.4814 60.2744 44.2998C60.4385 44.1182 60.6787 44.0273 60.9951 44.0273C61.3057 44.0273 61.543 44.1182 61.707 44.2998C61.877 44.4814 61.9619 44.7041 61.9619 44.9678C61.9619 45.2197 61.877 45.4365 61.707 45.6182C61.543 45.7939 61.3057 45.8818 60.9951 45.8818C60.6787 45.8818 60.4385 45.7939 60.2744 45.6182C60.1162 45.4365 60.0371 45.2197 60.0371 44.9678ZM68.3516 57.1758C67.6895 57.1758 67.0889 57.0645 66.5498 56.8418C66.0166 56.6133 65.5566 56.2939 65.1699 55.8838C64.7891 55.4736 64.4961 54.9873 64.291 54.4248C64.0859 53.8623 63.9834 53.2471 63.9834 52.5791V52.21C63.9834 51.4365 64.0977 50.748 64.3262 50.1445C64.5547 49.5352 64.8652 49.0195 65.2578 48.5977C65.6504 48.1758 66.0957 47.8564 66.5938 47.6396C67.0918 47.4229 67.6074 47.3145 68.1406 47.3145C68.8203 47.3145 69.4062 47.4316 69.8984 47.666C70.3965 47.9004 70.8037 48.2285 71.1201 48.6504C71.4365 49.0664 71.6709 49.5586 71.8232 50.127C71.9756 50.6895 72.0518 51.3047 72.0518 51.9727V52.7021H64.9502V51.375H70.4258V51.252C70.4023 50.8301 70.3145 50.4199 70.1621 50.0215C70.0156 49.623 69.7812 49.2949 69.459 49.0371C69.1367 48.7793 68.6973 48.6504 68.1406 48.6504C67.7715 48.6504 67.4316 48.7295 67.1211 48.8877C66.8105 49.04 66.5439 49.2686 66.3213 49.5732C66.0986 49.8779 65.9258 50.25 65.8027 50.6895C65.6797 51.1289 65.6182 51.6357 65.6182 52.21V52.5791C65.6182 53.0303 65.6797 53.4551 65.8027 53.8535C65.9316 54.2461 66.1162 54.5918 66.3564 54.8906C66.6025 55.1895 66.8984 55.4238 67.2441 55.5938C67.5957 55.7637 67.9941 55.8486 68.4395 55.8486C69.0137 55.8486 69.5 55.7314 69.8984 55.4971C70.2969 55.2627 70.6455 54.9492 70.9443 54.5566L71.9287 55.3389C71.7236 55.6494 71.4629 55.9453 71.1465 56.2266C70.8301 56.5078 70.4404 56.7363 69.9775 56.9121C69.5205 57.0879 68.9785 57.1758 68.3516 57.1758ZM79.4873 54.4775C79.4873 54.2432 79.4346 54.0264 79.3291 53.8271C79.2295 53.6221 79.0215 53.4375 78.7051 53.2734C78.3945 53.1035 77.9258 52.957 77.2988 52.834C76.7715 52.7227 76.2939 52.5908 75.8662 52.4385C75.4443 52.2861 75.084 52.1016 74.7852 51.8848C74.4922 51.668 74.2666 51.4131 74.1084 51.1201C73.9502 50.8271 73.8711 50.4844 73.8711 50.0918C73.8711 49.7168 73.9531 49.3623 74.1172 49.0283C74.2871 48.6943 74.5244 48.3984 74.8291 48.1406C75.1396 47.8828 75.5117 47.6807 75.9453 47.5342C76.3789 47.3877 76.8623 47.3145 77.3955 47.3145C78.1572 47.3145 78.8076 47.4492 79.3467 47.7188C79.8857 47.9883 80.2988 48.3486 80.5859 48.7998C80.873 49.2451 81.0166 49.7402 81.0166 50.2852H79.3906C79.3906 50.0215 79.3115 49.7666 79.1533 49.5205C79.001 49.2686 78.7754 49.0605 78.4766 48.8965C78.1836 48.7324 77.8232 48.6504 77.3955 48.6504C76.9443 48.6504 76.5781 48.7207 76.2969 48.8613C76.0215 48.9961 75.8193 49.1689 75.6904 49.3799C75.5674 49.5908 75.5059 49.8135 75.5059 50.0479C75.5059 50.2236 75.5352 50.3818 75.5938 50.5225C75.6582 50.6572 75.7695 50.7832 75.9277 50.9004C76.0859 51.0117 76.3086 51.1172 76.5957 51.2168C76.8828 51.3164 77.249 51.416 77.6943 51.5156C78.4736 51.6914 79.1152 51.9023 79.6191 52.1484C80.123 52.3945 80.498 52.6963 80.7441 53.0537C80.9902 53.4111 81.1133 53.8447 81.1133 54.3545C81.1133 54.7705 81.0254 55.1514 80.8496 55.4971C80.6797 55.8428 80.4307 56.1416 80.1025 56.3936C79.7803 56.6396 79.3936 56.833 78.9424 56.9736C78.4971 57.1084 77.9961 57.1758 77.4395 57.1758C76.6016 57.1758 75.8926 57.0264 75.3125 56.7275C74.7324 56.4287 74.293 56.042 73.9941 55.5674C73.6953 55.0928 73.5459 54.5918 73.5459 54.0645H75.1807C75.2041 54.5098 75.333 54.8643 75.5674 55.1279C75.8018 55.3857 76.0889 55.5703 76.4287 55.6816C76.7686 55.7871 77.1055 55.8398 77.4395 55.8398C77.8848 55.8398 78.2568 55.7812 78.5557 55.6641C78.8604 55.5469 79.0918 55.3857 79.25 55.1807C79.4082 54.9756 79.4873 54.7412 79.4873 54.4775Z" fill="#E50914"/>
</svg>
