<svg width="auto" height="100%" viewBox="0 0 28 28" fill="none" xmlns="http://www.w3.org/2000/svg">
<circle cx="14" cy="14" r="13.5" fill="#141414" stroke="white"/>
<path fill-rule="evenodd" clip-rule="evenodd" d="M13.7197 7.88314C13.7197 7.55488 13.5266 7.25895 13.2304 7.13334C12.9342 7.00772 12.5932 7.07715 12.3665 7.30926L8.63517 11.1294H5.7927C5.35491 11.1294 5 11.4928 5 11.941V16.8105C5 17.2587 5.35491 17.622 5.7927 17.622H8.63517L12.3665 21.4422C12.5932 21.6743 12.9342 21.7438 13.2304 21.6182C13.5266 21.4925 13.7197 21.1966 13.7197 20.8684V7.88314ZM9.52405 12.5149L12.1343 9.84245V18.909L9.52405 16.2366L9.29186 15.9989H8.96352H6.58541V12.7526H8.96352H9.29186L9.52405 12.5149ZM17.1227 12.5149L18.9403 14.3757L17.1227 16.2366L18.2438 17.3843L20.0614 15.5235L21.879 17.3843L23 16.2366L21.1824 14.3757L23 12.5149L21.879 11.3671L20.0614 13.228L18.2438 11.3671L17.1227 12.5149Z" fill="white"/>
</svg>
