<svg width="auto" height="100%" viewBox="0 0 11 11" fill="none" xmlns="http://www.w3.org/2000/svg">
<path d="M5.5 1.375C4.68415 1.375 3.88663 1.61693 3.20827 2.07019C2.52992 2.52345 2.00121 3.16769 1.689 3.92143C1.37679 4.67518 1.2951 5.50458 1.45426 6.30475C1.61343 7.10492 2.00629 7.83992 2.58319 8.41682C3.16008 8.99371 3.89508 9.38657 4.69525 9.54574C5.49543 9.7049 6.32483 9.62321 7.07857 9.311C7.83232 8.99879 8.47655 8.47008 8.92981 7.79173C9.38307 7.11337 9.625 6.31585 9.625 5.5C9.62381 4.40635 9.18883 3.35783 8.4155 2.5845C7.64217 1.81117 6.59365 1.37619 5.5 1.375ZM7.5625 5.84375C7.5625 5.93492 7.52629 6.02235 7.46182 6.08682C7.39735 6.15128 7.30992 6.1875 7.21875 6.1875H3.78125C3.69008 6.1875 3.60265 6.15128 3.53818 6.08682C3.47372 6.02235 3.4375 5.93492 3.4375 5.84375V5.15625C3.4375 5.06508 3.47372 4.97765 3.53818 4.91318C3.60265 4.84872 3.69008 4.8125 3.78125 4.8125H7.21875C7.30992 4.8125 7.39735 4.84872 7.46182 4.91318C7.52629 4.97765 7.5625 5.06508 7.5625 5.15625V5.84375Z" fill="white"/>
</svg>
