<svg width="24" height="24" viewBox="0 0 24 24" fill="none" xmlns="http://www.w3.org/2000/svg">
<path fill-rule="evenodd" clip-rule="evenodd" d="M16.293 16.293C16.684 15.902 17.316 15.902 17.707 16.293L21.707 20.293C22.098 20.684 22.098 21.316 21.707 21.707C21.512 21.902 21.256 22 21 22C20.744 22 20.488 21.902 20.293 21.707L16.293 17.707C15.902 17.316 15.902 16.684 16.293 16.293ZM9.5 2C13.642 2 17 5.358 17 9.5C17 13.642 13.642 17 9.5 17C5.358 17 2 13.642 2 9.5C2 5.358 5.358 2 9.5 2ZM9.5 4C6.467 4 4 6.467 4 9.5C4 12.533 6.467 15 9.5 15C12.533 15 15 12.533 15 9.5C15 6.467 12.533 4 9.5 4Z" fill="white"/>
</svg>
