<svg width="auto" height="100%" viewBox="0 0 28 28" fill="none" xmlns="http://www.w3.org/2000/svg">
<circle cx="14" cy="14" r="13.5" fill="#141414" stroke="white"/>
<path fill-rule="evenodd" clip-rule="evenodd" d="M23 14.4246C23 11.6399 21.8937 8.96913 19.9246 7L18.864 8.06067C20.5518 9.74849 21.5 12.0377 21.5 14.4246C21.5 16.8116 20.5518 19.1008 18.864 20.7886L19.9246 21.8492C21.8937 19.8801 23 17.2094 23 14.4246ZM13.25 8.42462C13.25 8.12127 13.0673 7.8478 12.787 7.73171C12.5067 7.61562 12.1842 7.67979 11.9697 7.89429L8.43934 11.4246H5.75C5.33579 11.4246 5 11.7604 5 12.1746V16.6746C5 17.0888 5.33579 17.4246 5.75 17.4246H8.43934L11.9697 20.9549C12.1842 21.1694 12.5067 21.2336 12.787 21.1175C13.0673 21.0014 13.25 20.728 13.25 20.4246V8.42462ZM9.28033 12.705L11.75 10.2353V18.614L9.28033 16.1443L9.06066 15.9246H8.75H6.5V12.9246H8.75H9.06066L9.28033 12.705ZM17.0001 14.4246C17.0001 13.2311 16.526 12.0866 15.6821 11.2427L14.6214 12.3033C15.184 12.8659 15.5001 13.629 15.5001 14.4246C15.5001 15.2203 15.184 15.9833 14.6214 16.546L15.6821 17.6066C16.526 16.7627 17.0001 15.6181 17.0001 14.4246ZM17.8032 9.12133C19.2097 10.5279 19.9998 12.4355 19.9998 14.4246C19.9998 16.4138 19.2097 18.3214 17.8032 19.7279L16.7425 18.6673C17.8678 17.5421 18.4998 16.016 18.4998 14.4246C18.4998 12.8333 17.8678 11.3072 16.7425 10.182L17.8032 9.12133Z" fill="white"/>
</svg>
