<svg width="220" height="29" viewBox="0 0 220 29" fill="none" xmlns="http://www.w3.org/2000/svg">
<g clip-path="url(#clip0_123_1034)">
<path d="M154.367 28.4595H205.782C207.649 28.4595 209.498 28.0918 211.223 27.3773C212.948 26.6628 214.515 25.6155 215.836 24.2952C217.156 22.975 218.203 21.4077 218.918 19.6827C219.632 17.9577 220 16.1089 220 14.2418C220.003 12.3727 219.638 10.5213 218.925 8.79354C218.212 7.06578 217.165 5.49559 215.844 4.17279C214.524 2.85 212.955 1.80058 211.229 1.08456C209.502 0.368547 207.651 -2.69387e-06 205.782 0L154.367 0C152.498 -2.69387e-06 150.647 0.368547 148.92 1.08456C147.194 1.80058 145.625 2.85 144.305 4.17279C142.984 5.49559 141.938 7.06578 141.225 8.79354C140.511 10.5213 140.146 12.3727 140.149 14.2418C140.149 18.0126 141.647 21.6289 144.313 24.2952C146.98 26.9616 150.596 28.4595 154.367 28.4595ZM8.12669 28.4997H14.4027V5.56799H22.5294V0H0V5.5519H8.12669V28.4997ZM30.7366 28.4997H37.0126V6.63814H37.0931L44.2945 28.4837H49.1222L56.565 6.63814H56.6454V28.4837H62.9215V0H53.4672L46.8693 18.5868H46.7888L40.2311 0H30.7366V28.4997ZM71.7241 0.0965547H81.1382C83.3299 0.0999233 85.5131 0.370119 87.6395 0.901178C89.576 1.36058 91.4008 2.20323 93.0063 3.37942C94.5592 4.54699 95.8092 6.07014 96.6513 7.82093C97.6033 9.901 98.0631 12.1725 97.995 14.4591C98.0386 16.5656 97.5924 18.6534 96.6915 20.5581C95.8527 22.2721 94.65 23.7823 93.1673 24.9835C91.6496 26.2004 89.9163 27.1203 88.0579 27.6951C86.0937 28.3188 84.0439 28.631 81.983 28.6204H71.7241V0.0965547ZM78.0001 22.7869H81.2186C82.5723 22.7962 83.9224 22.6476 85.2417 22.3444C86.419 22.1054 87.5323 21.6201 88.5085 20.9202C89.4403 20.2151 90.1815 19.2886 90.6649 18.2247C91.2299 16.9378 91.5046 15.5423 91.4695 14.1372C91.4934 12.8783 91.2176 11.6317 90.6649 10.5003C90.1631 9.49773 89.4394 8.62267 88.5487 7.94163C87.6232 7.25421 86.5783 6.74406 85.467 6.43698C84.2414 6.09427 82.974 5.92366 81.7014 5.93007H78.0001V22.7869ZM107.087 0.0965547H117.708C118.955 0.0971625 120.2 0.185892 121.434 0.36208C122.604 0.513721 123.74 0.867657 124.789 1.40809C125.769 1.91672 126.601 2.67077 127.203 3.59666C127.87 4.72652 128.192 6.02735 128.128 7.33816C128.183 8.79783 127.706 10.2277 126.784 11.3613C125.844 12.4504 124.605 13.2394 123.22 13.6303V13.6786C124.111 13.8058 124.975 14.0776 125.779 14.4832C126.521 14.8558 127.189 15.3602 127.75 15.9718C128.306 16.5842 128.735 17.3007 129.013 18.0799C129.313 18.9049 129.463 19.7769 129.456 20.6547C129.504 21.9768 129.169 23.2846 128.49 24.4203C127.859 25.4089 127.005 26.2357 125.996 26.8342C124.935 27.4708 123.773 27.9199 122.56 28.1618C121.309 28.43 120.034 28.5649 118.754 28.5641H107.087V0.0965547ZM113.363 11.482H117.909C118.391 11.4846 118.872 11.4306 119.342 11.321C119.791 11.2236 120.218 11.0464 120.605 10.798C120.982 10.5549 121.294 10.2235 121.514 9.83249C121.75 9.38697 121.866 8.88802 121.852 8.38417C121.878 7.87209 121.755 7.36347 121.498 6.91976C121.248 6.53954 120.908 6.22715 120.508 6.01053C120.06 5.78542 119.58 5.63072 119.084 5.5519C118.594 5.45704 118.095 5.40855 117.596 5.40707H113.331L113.363 11.482ZM113.363 23.2697H118.996C119.491 23.271 119.985 23.217 120.468 23.1088C120.948 23.0105 121.405 22.8191 121.812 22.5455C122.218 22.2776 122.556 21.9197 122.802 21.4995C123.066 21.0198 123.196 20.4779 123.18 19.9305C123.201 19.353 123.025 18.7854 122.681 18.3213C122.343 17.9036 121.906 17.5772 121.41 17.3718C120.894 17.157 120.353 17.0083 119.8 16.9293C119.254 16.8517 118.703 16.8113 118.151 16.8086H113.404L113.363 23.2697Z" fill="url(#paint0_linear_123_1034)"/>
</g>
<defs>
<linearGradient id="paint0_linear_123_1034" x1="0" y1="14.2901" x2="220" y2="14.2901" gradientUnits="userSpaceOnUse">
<stop stop-color="#90CEA1"/>
<stop offset="0.56" stop-color="#3CBEC9"/>
<stop offset="1" stop-color="#00B3E5"/>
</linearGradient>
<clipPath id="clip0_123_1034">
<rect width="220" height="28.5802" fill="white"/>
</clipPath>
</defs>
</svg>
